<?phpxml version="1.0" standalone="no"?> <!DOCTYPE svg PUBLIC "-//W3C//DTD SVG 1.0//EN" "http://www.w3.org/TR/2001/REC-SVG-20010904/DTD/svg10.dtd" > <svg xmlns="http://www.w3.org/2000/svg" width="100%" height="100%">
<defs >
<font id="metamediumcapslfc" horiz-adv-x="470" ><font-face
    font-family="MetaMediumCapsLFC"
    units-per-em="1000"
    panose-1="0 0 6 0 0 0 0 0 0 0"
    ascent="541"
    descent="0"
    alphabetic="0" />
<missing-glyph horiz-adv-x="225" />
<glyph unicode=" " glyph-name="space" horiz-adv-x="225" />
<glyph unicode="!" glyph-name="exclam" horiz-adv-x="286" d="M208 706L184 212H100L75 687L208 706ZM216 64Q216 33 194 12T142 -10Q111 -10 91 11T70 64Q70 94 91 115T143 137Q173 137 194 116T216 64Z" />
<glyph unicode="&quot;" glyph-name="quotedbl" horiz-adv-x="443" d="M373 442H271V709H373V442ZM172 442H70V709H172V442Z" />
<glyph unicode="#" glyph-name="numbersign" horiz-adv-x="556" d="M526 425H426L406 284H496V207H396L367 0H284L313 207H201L172 0H90L118 207H30V284H129L148 425H59V502H159L187 708H270L241 502H353L382 708H464L436 502H526V425ZM343 425H231L211 284H324L343 425Z" />
<glyph unicode="$" glyph-name="dollar" horiz-adv-x="579" d="M539 210Q539 118 475 59T317 -11V-99H245V-12Q136 -9 40 48L84 137Q182 81 276 81Q341 81 375 112T409 190Q409 265 314 293L230 318Q136 346 100 396Q67 441 67 503Q67 586 119 638T264 703V779H336V703Q439
697 523 637L471 556Q383 609 312 609Q253 609 224 586T194 521Q194 457 274 436L368 410Q450 388 493 337Q539 285 539 210Z" />
<glyph unicode="%" glyph-name="percent" horiz-adv-x="834" d="M804 162Q804 85 760 38T637 -9Q560 -9 516 37T471 162Q471 240 516 286T636 333Q715 333 759 288T804 162ZM633 690L282 0H203L553 690H633ZM363 528Q363 449 318 404Q272 358 196 358Q119 358
75 404T30 529Q30 607 75 653T195 700Q273 700 318 655T363 528ZM713 160Q713 218 695 243T636 269Q561 269 561 166Q561 106 579 81T638 56Q713 56 713 160ZM272 527Q272 584 254 610T195 636Q120 636 120 532Q120 473 138 448T197 422Q272 422 272 527Z" />
<glyph unicode="&amp;" glyph-name="ampersand" horiz-adv-x="689" d="M689 0H538L485 53Q419 -13 292 -13Q176 -13 113 37T50 173Q50 234 83 274T183 347Q134 386 114 420T94 500Q94 570 147 616T284 663Q368 663 423 621T478 507Q478 452 443 414T341 344L477
212Q491 248 491 334H583Q583 213 549 139L689 0ZM362 507Q362 542 341 564T285 586T230 566T208 510Q208 485 223 462T280 399Q362 440 362 507ZM420 115L242 289Q168 248 168 176Q168 125 202 96T296 67Q380 67 420 115Z" />
<glyph unicode="&apos;" glyph-name="quotesingle" horiz-adv-x="242" d="M172 442H70V709H172V442Z" />
<glyph unicode="(" glyph-name="parenleft" horiz-adv-x="303" d="M323 -103L294 -163Q226 -138 174 -85T91 42Q50 144 50 322Q50 468 85 558Q145 712 293 778L321 717Q231 656 197 574Q161 490 161 324Q161 188 182 103Q201 28 232 -22T323 -103Z" />
<glyph unicode=")" glyph-name="parenright" horiz-adv-x="304" d="M254 310Q254 164 222 68Q195 -11 140 -72T9 -163L-20 -102Q75 -48 115 70Q142 151 142 310Q142 406 123 506Q96 649 -18 717L10 778Q141 726 209 584Q254 489 254 310Z" />
<glyph unicode="*" glyph-name="asterisk" horiz-adv-x="456" d="M431 531L295 486L381 368L314 317L227 438L143 320L77 370L163 486L25 533L52 612L188 564V708H270V564L406 610L431 531Z" />
<glyph unicode="+" glyph-name="plus" horiz-adv-x="600" d="M550 232H351V32H249V232H50V336H249V536H351V336H550V232Z" />
<glyph unicode="," glyph-name="comma" horiz-adv-x="282" d="M222 35Q222 -26 185 -75T90 -144L50 -94Q80 -84 99 -64T118 -23Q118 -11 96 -2Q53 15 53 65Q53 99 76 122T132 145Q171 145 196 114T222 35Z" />
<glyph unicode="-" glyph-name="hyphen" horiz-adv-x="319" d="M269 221H50V323H269V221Z" />
<glyph unicode="." glyph-name="period" horiz-adv-x="277" d="M217 67Q217 33 194 9T139 -15Q106 -15 83 9T60 67Q60 100 82 123T137 146Q170 146 193 123T217 67Z" />
<glyph unicode="/" glyph-name="slash" horiz-adv-x="440" d="M390 762L126 -151H50L313 762H390Z" />
<glyph unicode="0" glyph-name="zero" horiz-adv-x="560" d="M514 330Q514 175 449 80T278 -15Q215 -15 168 18T96 106T58 217T46 333Q46 480 112 576T279 672Q343 672 391 640T464 555T502 446T514 330ZM392 328Q392 416 377 481Q351 589 280 589Q222 589 192
505Q169 443 169 334Q169 236 183 178Q209 67 279 67Q310 67 334 92T373 161Q392 224 392 328Z" />
<glyph unicode="1" glyph-name="one" horiz-adv-x="560" d="M450 0H133V89H249V533Q196 501 181 494Q129 469 105 461L78 520L279 661H357V89H450V0Z" />
<glyph unicode="2" glyph-name="two" horiz-adv-x="560" d="M506 91L482 0H74V73Q149 136 234 231Q363 373 363 468Q363 519 335 547T263 575Q223 575 191 559T117 510L61 575Q172 672 297 672Q381 672 434 619T488 483Q488 390 394 278Q377 258 288 166Q215 93
204 87Q244 91 301 91H506Z" />
<glyph unicode="3" glyph-name="three" horiz-adv-x="560" d="M493 202Q493 137 450 84T336 2Q257 -31 146 -31Q108 -31 78 -27L52 49Q83 43 117 43Q175 43 228 57T324 112T366 212Q366 236 360 254T339 283T312 300T276 310T239 313T200 314H167V401H225Q355
401 355 490Q355 530 329 554T255 579Q212 579 180 565T104 520L48 588Q92 625 154 648T272 672Q361 672 418 624T476 503Q476 395 366 355Q421 338 457 298T493 202Z" />
<glyph unicode="4" glyph-name="four" horiz-adv-x="560" d="M515 125H466L437 127Q440 127 440 89V-15L335 -34V96L336 127Q336 125 301 125H39V203L251 663H367L197 294L155 215Q155 217 183 217H315L338 216Q337 216 337 238Q337 275 342 337L354 480L440 502V239L439
215Q439 217 466 217H515V125Z" />
<glyph unicode="5" glyph-name="five" horiz-adv-x="560" d="M485 215Q485 150 450 94T353 7Q278 -32 181 -32Q141 -32 106 -24L83 58Q126 44 169 44Q254 44 309 89T365 205Q365 262 331 292T238 322Q172 322 101 296L133 657H455L438 564H235L219 402Q253 407
275 407Q365 407 425 355T485 215Z" />
<glyph unicode="6" glyph-name="six" horiz-adv-x="560" d="M513 208Q513 113 448 49T285 -15Q179 -15 113 62T46 262Q46 354 90 439T207 588Q301 670 428 707L453 631Q318 582 248 500Q221 469 207 442T182 372Q229 413 306 413Q393 413 453 354T513 208ZM394
206Q394 258 367 292T289 326Q234 326 171 284Q168 233 168 228Q168 163 195 116T282 69Q334 69 364 106T394 206Z" />
<glyph unicode="7" glyph-name="seven" horiz-adv-x="560" d="M521 657L500 556Q392 393 332 268Q256 109 240 -9L114 -41Q160 159 266 358Q334 486 399 562Q399 560 336 560H72L97 657H521Z" />
<glyph unicode="8" glyph-name="eight" horiz-adv-x="560" d="M523 182Q523 121 484 74T389 4T273 -19Q177 -19 107 29T37 170Q37 229 72 275T165 342Q118 361 88 403T58 495Q58 583 125 627T285 672Q380 672 439 626T498 507Q498 403 365 353Q443 321 483 281T523
182ZM381 507Q381 547 353 569T275 592Q227 592 198 568T169 505Q169 442 285 395Q381 443 381 507ZM402 163Q402 210 369 235Q334 263 240 302Q156 257 156 178Q156 125 191 94T284 63Q336 63 369 91T402 163Z" />
<glyph unicode="9" glyph-name="nine" horiz-adv-x="560" d="M513 414Q513 224 362 82Q248 -25 116 -53L58 14Q100 22 139 41Q271 102 335 206Q348 227 359 254Q312 227 259 227Q170 227 110 288T50 443Q50 542 117 607T285 673Q394 673 453 599T513 414ZM393
433Q393 504 363 545T281 587Q231 587 201 548T171 445Q171 384 200 349T281 313Q335 313 383 357Q393 393 393 433Z" />
<glyph unicode=":" glyph-name="colon" horiz-adv-x="295" d="M225 372Q225 339 202 317T147 294Q116 294 94 316T71 370Q71 403 93 426T148 450Q180 450 202 427T225 372ZM224 63Q224 31 201 9T146 -14T92 8T70 63Q70 96 92 120T148 143Q179 143 201 120T224 63Z" />
<glyph unicode=";" glyph-name="semicolon" horiz-adv-x="313" d="M229 403T229 371T207 316T152 293T97 316T74 371T96 426T150 450Q182 451 205 427ZM243 32Q243 -28 206 -77T110 -146L70 -97Q100 -87 119 -67T138 -27Q138 -18 128 -11T106 1T83 23T73 62Q73
96 96 119T152 143Q192 143 217 112T243 32Z" />
<glyph unicode="&lt;" glyph-name="less" horiz-adv-x="368" d="M328 81L240 12L20 299L240 587L328 516L163 299L328 81Z" />
<glyph unicode="=" glyph-name="equal" horiz-adv-x="635" d="M585 344H50V445H585V344ZM585 162H50V263H585V162Z" />
<glyph unicode="&gt;" glyph-name="greater" horiz-adv-x="367" d="M347 299L128 12L40 81L204 299L40 516L128 587L347 299Z" />
<glyph unicode="?" glyph-name="question" horiz-adv-x="463" d="M403 543Q403 510 393 484T364 437T335 409T306 389Q239 344 239 262Q239 242 242 223H148Q140 258 140 285Q140 370 218 433Q224 437 238 447T259 464T275 480T289 503T293 530Q293 567 269 587T206
607Q145 607 88 562L40 633Q116 702 228 702Q302 702 352 659T403 543ZM282 64Q282 32 260 10T206 -13T154 9T132 64Q132 95 153 116T207 138Q237 138 259 117T282 64Z" />
<glyph unicode="@" glyph-name="at" horiz-adv-x="911" d="M861 276Q861 147 795 67T634 -14Q579 -14 551 10T519 73Q491 40 452 19T369 -2Q319 -2 283 35T246 143Q246 270 319 361T522 453Q592 453 659 417Q639 350 596 148Q584 90 593 72T637 53Q691 53 729
117T768 276Q768 395 684 476T464 558Q323 558 234 453T144 205Q144 74 231 -11T446 -96Q524 -96 590 -74L608 -142Q538 -165 446 -165Q366 -165 295 -141T169 -70T82 47T50 205Q50 383 167 504T464 625Q635 625 748 529T861 276ZM556 380Q541 387 515 387Q456
387 414 347T355 253T338 139Q338 101 350 86T390 71Q426 71 465 105T517 201L556 380Z" />
<glyph unicode="A" glyph-name="A" horiz-adv-x="577" d="M579 0H453L397 182H173L117 0H-2L225 692H358L579 0ZM201 278H371Q319 451 289 578Q258 465 201 278Z" />
<glyph unicode="B" glyph-name="B" horiz-adv-x="601" d="M551 196Q551 0 281 0H80V692H263Q340 692 376 685T445 658Q523 608 523 522Q523 466 492 427T404 371Q483 352 517 304T551 196ZM402 503Q402 533 387 557T346 590Q324 598 281 598H195V408H290Q324 408
341 413T375 434Q402 462 402 503ZM423 206Q423 243 405 271T358 308Q338 314 294 314H195V94H297Q360 94 391 125T423 206Z" />
<glyph unicode="C" glyph-name="C" horiz-adv-x="567" d="M537 51Q457 -10 348 -10Q212 -10 129 90Q50 186 50 334Q50 457 96 543Q135 617 202 659T351 702Q458 702 523 648L470 573Q417 612 352 612Q261 612 214 529Q178 466 178 348Q178 236 205 178Q250 80
359 80Q428 80 483 124L537 51Z" />
<glyph unicode="D" glyph-name="D" horiz-adv-x="621" d="M571 344Q571 190 498 97Q455 42 402 21T251 0H80V692H224Q324 692 386 670T496 594Q571 507 571 344ZM443 333Q443 482 399 542Q375 575 346 588T269 602H195V94H272Q362 94 402 153T443 333Z" />
<glyph unicode="E" glyph-name="E" horiz-adv-x="499" d="M474 0H80V692H464L449 598H197V409H408V315H197V98H474V0Z" />
<glyph unicode="F" glyph-name="F" horiz-adv-x="431" d="M446 692L432 598H195V410H388V316H195V0H80V692H446Z" />
<glyph unicode="G" glyph-name="G" horiz-adv-x="639" d="M569 48Q473 -10 353 -10Q206 -10 127 88Q50 182 50 341Q50 551 180 648Q251 702 351 702Q472 702 557 629L499 559Q430 612 353 612Q178 612 178 337Q178 190 229 130Q273 78 360 78Q411 78 452 100V280H334L318
374H569V48Z" />
<glyph unicode="H" glyph-name="H" horiz-adv-x="626" d="M546 0H431V320H195V0H80V692H195V414H431V692H546V0Z" />
<glyph unicode="I" glyph-name="I" horiz-adv-x="278" d="M198 0H80V692H198V0Z" />
<glyph unicode="J" glyph-name="J" horiz-adv-x="283" d="M203 128Q203 45 194 6T162 -65Q121 -122 45 -150L-9 -89Q50 -57 72 -11Q88 22 88 118V692H203V128Z" />
<glyph unicode="K" glyph-name="K" horiz-adv-x="571" d="M581 0H431L198 369L423 692H565L325 371L581 0ZM195 0H80V692H195V0Z" />
<glyph unicode="L" glyph-name="L" horiz-adv-x="463" d="M453 94L434 0H80V692H195V94H453Z" />
<glyph unicode="M" glyph-name="M" horiz-adv-x="816" d="M756 0H643L611 429Q606 502 606 549Q590 475 579 438L453 0H355L240 419Q221 485 210 550Q210 518 203 418L173 0H60L123 692H276L382 300Q393 259 408 182Q415 232 433 298L542 692H695L756 0Z" />
<glyph unicode="N" glyph-name="N" horiz-adv-x="629" d="M549 0H428L273 325Q210 456 183 530L180 527Q185 472 187 335L191 0H80V692H210L378 354Q431 247 447 176L450 179Q440 296 440 376L438 692H549V0Z" />
<glyph unicode="O" glyph-name="O" horiz-adv-x="678" d="M628 346Q628 182 553 86T344 -10Q201 -10 126 88T50 347Q50 515 128 608T339 702Q480 702 554 603T628 346ZM500 340Q500 475 465 544T341 614Q255 614 217 549T178 355Q178 217 217 148T344 78Q423 78
461 140T500 340Z" />
<glyph unicode="P" glyph-name="P" horiz-adv-x="555" d="M535 485Q535 385 471 325T311 264H195V0H80V692H264Q337 692 373 685T440 659Q535 603 535 485ZM407 479Q407 537 379 566Q347 600 283 600H195V356H283Q407 356 407 479Z" />
<glyph unicode="Q" glyph-name="Q" horiz-adv-x="680" d="M702 -39L671 -116Q646 -127 617 -127Q558 -127 483 -77Q410 -28 340 -10Q200 -10 125 89T50 347Q50 514 128 608T338 702Q477 702 552 606T628 345Q628 116 486 27Q509 18 562 -14Q610 -43 659 -43Q681
-43 702 -39ZM500 339Q500 479 464 546T341 614Q256 614 217 550T178 354Q178 204 220 141T345 78Q423 78 461 139T500 339Z" />
<glyph unicode="R" glyph-name="R" horiz-adv-x="573" d="M553 0H416L356 107Q287 229 238 278Q218 298 195 299V0H80V692H291Q402 692 459 636T516 494Q516 416 469 360T344 304Q376 288 451 166L553 0ZM396 440T396 494T364 574T256 600H195V380H252Q336 380
365 409Q396 440 396 494Z" />
<glyph unicode="S" glyph-name="S" horiz-adv-x="587" d="M542 212Q542 120 470 55T272 -10Q148 -10 45 52L89 141Q187 84 276 84Q340 84 376 113T412 194Q412 264 309 293L235 314Q138 342 101 397Q72 440 72 497Q72 588 137 645T307 702Q432 702 526 636L474
555Q385 608 311 608Q260 608 229 583T198 514Q198 482 218 464T290 430L372 406Q451 383 496 334T542 212Z" />
<glyph unicode="T" glyph-name="T" horiz-adv-x="474" d="M494 692L479 596H305V0H190V596H15V692H494Z" />
<glyph unicode="U" glyph-name="U" horiz-adv-x="629" d="M554 196Q554 100 491 45T314 -10Q187 -10 131 46T75 195V692H190V229Q190 151 219 120T313 88Q439 88 439 229V692H554V196Z" />
<glyph unicode="V" glyph-name="V" horiz-adv-x="558" d="M568 692L330 -3H223L-10 692H116L241 300Q265 226 277 161H278Q297 234 319 300L448 692H568Z" />
<glyph unicode="W" glyph-name="W" horiz-adv-x="816" d="M811 692L647 -4H515L444 317Q421 421 410 517H408Q395 433 372 320L305 -4H170L5 692H128L197 370Q221 261 234 149H236Q258 278 275 362L347 692H476L548 348Q565 265 582 153H584Q600 256 625 378L691
692H811Z" />
<glyph unicode="X" glyph-name="X" horiz-adv-x="540" d="M550 0H412L269 274L131 0H-10L202 371L16 692H156L267 478L376 692H512L336 379L550 0Z" />
<glyph unicode="Y" glyph-name="Y" horiz-adv-x="518" d="M-20 692H119L226 469Q236 449 260 386L298 473L404 692H538L315 279V0H200V280L-20 692Z" />
<glyph unicode="Z" glyph-name="Z" horiz-adv-x="531" d="M491 94L462 0H40V84L310 533Q329 566 356 602Q323 598 281 598H53L79 692H485V605L216 151Q202 126 176 92Q206 94 245 94H491Z" />
<glyph unicode="[" glyph-name="bracketleft" horiz-adv-x="289" d="M269 -155H80V733H269V657H178V-81H269V-155Z" />
<glyph unicode="\" glyph-name="backslash" horiz-adv-x="410" d="M400 -19L308 -49L10 727L101 758L400 -19Z" />
<glyph unicode="]" glyph-name="bracketright" horiz-adv-x="289" d="M209 -155H20V-81H111V657H20V733H209V-155Z" />
<glyph unicode="^" glyph-name="asciicircum" horiz-adv-x="600" d="M550 318H438L300 604L162 318H50L244 708H356L550 318Z" />
<glyph unicode="_" glyph-name="underscore" horiz-adv-x="500" d="M500 -125H0V-75H500V-125Z" />
<glyph unicode="`" glyph-name="grave" horiz-adv-x="314" d="M284 623L250 560L30 662L80 755L284 623Z" />
<glyph unicode="a" glyph-name="a" horiz-adv-x="512" d="M514 0H393L346 130H161L115 0H-2L199 543H322L514 0ZM322 216L256 446L188 216H322Z" />
<glyph unicode="b" glyph-name="b" horiz-adv-x="568" d="M508 152Q508 106 484 71T414 17Q370 0 292 0H90V541H290Q360 541 402 523Q440 506 462 475T484 405Q484 363 459 331T393 288Q444 273 476 238T508 152ZM367 387Q367 451 276 451H202V325H277Q320 325
343 337T367 387ZM384 163Q384 236 283 236H202V89H282Q384 89 384 163Z" />
<glyph unicode="c" glyph-name="c" horiz-adv-x="523" d="M493 42Q427 -9 326 -9Q208 -9 141 55Q60 133 60 260Q60 361 105 432Q141 488 200 520T329 552Q425 552 481 509L428 436Q381 465 331 465Q258 465 217 407Q186 363 186 276Q186 217 193 184T222 126Q264
77 335 77Q389 77 440 109L493 42Z" />
<glyph unicode="d" glyph-name="d" horiz-adv-x="585" d="M525 269Q525 156 471 91T352 10Q309 0 240 0H90V541H210Q308 541 358 526Q525 474 525 269ZM401 260Q401 455 261 455H203V89H274Q401 89 401 260Z" />
<glyph unicode="e" glyph-name="e" horiz-adv-x="473" d="M438 0H90V541H430L414 452H202V327H379V238H203V94H438V0Z" />
<glyph unicode="f" glyph-name="f" horiz-adv-x="414" d="M414 541L400 453H202V326H362V237H202V0H90V541H414Z" />
<glyph unicode="g" glyph-name="g" horiz-adv-x="603" d="M523 41Q435 -6 330 -6Q201 -6 127 74Q60 147 60 268Q60 424 168 502Q233 549 328 549Q435 549 516 489L458 420Q396 462 330 462Q293 462 267 451T225 421T200 376T188 322T185 261Q185 74 335 74Q370
74 407 89V212H311L295 301H523V41Z" />
<glyph unicode="h" glyph-name="h" horiz-adv-x="593" d="M503 0H389V241H203V0H90V541H203V332H389V541H503V0Z" />
<glyph unicode="i" glyph-name="i" horiz-adv-x="296" d="M206 0H90V541H206V0Z" />
<glyph unicode="j" glyph-name="j" horiz-adv-x="293" d="M203 102Q203 35 195 3Q184 -41 146 -74T58 -125L5 -68Q58 -39 77 -2Q90 23 90 94V541H203V102Z" />
<glyph unicode="k" glyph-name="k" horiz-adv-x="555" d="M545 0H396L206 288L387 541H527L331 291L545 0ZM205 0H90V541H205V0Z" />
<glyph unicode="l" glyph-name="l" horiz-adv-x="423" d="M423 92L402 0H90V541H203V92H423Z" />
<glyph unicode="m" glyph-name="m" horiz-adv-x="761" d="M691 0H580L558 313L553 428L523 316L426 0H329L238 311L209 434L204 311L182 0H70L127 541H273L356 253L381 138L407 254L490 541H637L691 0Z" />
<glyph unicode="n" glyph-name="n" horiz-adv-x="595" d="M505 0H389L259 250L189 399L195 237L199 0H90V541H215L349 296Q366 264 388 212L411 160L406 219Q401 278 401 311L399 541H505V0Z" />
<glyph unicode="o" glyph-name="o" horiz-adv-x="633" d="M572 272Q572 143 510 68T321 -8Q198 -8 129 68T60 269Q60 400 128 474T316 549Q440 549 506 474T572 272ZM446 268Q446 309 442 339T425 401T384 448T314 465Q186 465 186 271Q186 237 188 212T198 160T220
114T259 85T319 73Q352 73 376 85T413 115T434 161T444 213T446 268Z" />
<glyph unicode="p" glyph-name="p" horiz-adv-x="527" d="M497 374Q497 325 474 288T415 230Q357 198 276 198H203V0H90V541H246Q317 541 349 535T411 515Q451 495 474 458T497 374ZM373 371Q373 454 269 454H203V287H277Q326 287 349 305T373 371Z" />
<glyph unicode="q" glyph-name="q" horiz-adv-x="633" d="M654 -33L625 -100Q607 -109 581 -109Q541 -109 454 -65T353 -15Q332 -7 305 -7Q190 -7 125 72T60 269Q60 397 130 473T316 549Q439 549 505 473T572 272Q572 188 546 128T457 26Q488 13 508 2Q572 -35
623 -35Q638 -35 654 -33ZM446 268Q446 300 444 324T433 377T412 423T374 453T315 465Q186 465 186 271Q186 165 216 119T319 73Q446 73 446 268Z" />
<glyph unicode="r" glyph-name="r" horiz-adv-x="539" d="M519 0H384L330 87Q267 188 240 212Q225 225 201 225V0H90V541H272Q381 541 427 503Q483 456 483 383Q483 321 446 279T350 232Q361 224 374 206Q438 120 445 109L519 0ZM366 381Q366 405 357 420T330
443T295 452T255 455H201V306H250Q276 306 293 308T328 316T356 339T366 381Z" />
<glyph unicode="s" glyph-name="s" horiz-adv-x="542" d="M487 169Q487 106 449 64T358 5T245 -12Q140 -12 45 36L86 122Q170 80 251 80Q293 80 327 95T361 148Q361 174 341 191T275 220L203 239Q141 255 104 293T67 391Q67 463 125 507T278 552Q332 552 387 537T478
497L425 418Q352 460 281 460Q191 460 191 404Q191 381 207 367T264 343L336 325Q487 288 487 169Z" />
<glyph unicode="t" glyph-name="t" horiz-adv-x="448" d="M443 541L424 450H277V0H164V450H15V541H443Z" />
<glyph unicode="u" glyph-name="u" horiz-adv-x="597" d="M512 188Q512 127 502 98T465 43Q409 -10 301 -10Q161 -10 109 69Q85 107 85 184V541H199V201Q199 144 208 126Q229 82 299 82Q354 82 377 110Q398 137 398 198V541H512V188Z" />
<glyph unicode="v" glyph-name="v" horiz-adv-x="499" d="M509 541L298 -3H197L-10 541H114L213 261L249 134L262 182Q274 231 285 260L392 541H509Z" />
<glyph unicode="w" glyph-name="w" horiz-adv-x="725" d="M720 541L575 -3H450L394 223Q382 271 372 339L363 407L329 226L278 -3H150L5 541H124L179 318Q192 267 202 193L213 119L224 192Q236 265 248 314L304 541H427L485 290L514 126L526 202Q539 279 549 320L602
541H720Z" />
<glyph unicode="x" glyph-name="x" horiz-adv-x="487" d="M497 0H361L245 203L131 0H-10L178 290L16 541H152L242 384L330 541H466L310 296L497 0Z" />
<glyph unicode="y" glyph-name="y" horiz-adv-x="460" d="M480 541L286 221V0H169V221L-20 541H116L199 378L232 302L243 333Q254 364 263 380L347 541H480Z" />
<glyph unicode="z" glyph-name="z" horiz-adv-x="502" d="M452 89L420 0H50V79L281 410L320 456L295 454Q270 452 252 452H60L88 542H444V462L216 129L180 86Q180 89 242 89H452Z" />
<glyph unicode="{" glyph-name="braceleft" horiz-adv-x="348" d="M328 -155H238Q188 -155 154 -120T120 -18V156Q120 186 101 207T61 235T20 243V334Q53 335 86 357T120 422V597Q120 663 153 698T238 733H328V642H279Q242 642 230 623T218 571V403Q218 303 125
290V286Q218 276 218 175V7Q218 -65 279 -65H328V-155Z" />
<glyph unicode="|" glyph-name="bar" horiz-adv-x="260" d="M180 -207H80V757H180V-207Z" />
<glyph unicode="}" glyph-name="braceright" horiz-adv-x="348" d="M328 243Q293 242 261 221T228 156V-19Q228 -86 195 -120T110 -155H20V-65H68Q130 -65 130 7V174Q130 276 224 286V291Q130 301 130 402V571Q130 603 118 622T68 642H20V733H111Q160 733 194
698T228 596V422Q228 379 261 357T328 334V243Z" />
<glyph unicode="~" glyph-name="asciitilde" horiz-adv-x="556" d="M506 305Q457 217 383 217Q350 217 276 250Q256 259 239 267T203 281T169 287Q150 287 133 276T105 253T82 219L50 303Q100 390 173 390Q210 390 280 358Q304 346 335 333T387 320Q406 320 423
332T450 355T474 388L506 305Z" />
</font>
</defs>
</svg>
