<?phpxml version="1.0" standalone="no"?> <!DOCTYPE svg PUBLIC "-//W3C//DTD SVG 1.0//EN" "http://www.w3.org/TR/2001/REC-SVG-20010904/DTD/svg10.dtd" > <svg xmlns="http://www.w3.org/2000/svg" width="100%" height="100%">
<defs >
<font id="metabookc" horiz-adv-x="425" ><font-face
    font-family="MetaBookC"
    units-per-em="1000"
    panose-1="0 0 5 0 0 0 0 0 0 0"
    ascent="735"
    descent="-211"
    alphabetic="0" />
<missing-glyph horiz-adv-x="225" />
<glyph unicode=" " glyph-name="space" horiz-adv-x="225" />
<glyph unicode="!" glyph-name="exclam" horiz-adv-x="281" d="M196 704L174 210H104L81 687L196 704ZM206 60Q206 32 186 12T139 -8T94 11T75 60Q75 87 93 106T140 125Q167 125 186 106T206 60Z" />
<glyph unicode="&quot;" glyph-name="quotedbl" horiz-adv-x="424" d="M344 453H259V709H344V453ZM165 453H80V709H165V453Z" />
<glyph unicode="#" glyph-name="numbersign" horiz-adv-x="551" d="M521 430H418L397 279H491V211H388L358 0H286L315 211H193L164 0H92L121 211H30V279H131L151 430H59V499H161L190 708H262L233 499H355L384 708H456L427 499H521V430ZM346 430H224L203 279H325L346 430Z" />
<glyph unicode="$" glyph-name="dollar" horiz-adv-x="582" d="M532 203Q532 122 473 63T325 -9V-102H263V-12Q149 -12 50 48L88 123Q178 67 263 67V317L227 329Q144 356 111 396Q74 440 74 504Q74 584 124 634T263 698V778H325V699Q424 696 513 634L470 566Q386
618 325 618V410L364 398Q448 372 486 327Q532 273 532 203ZM263 426V614Q220 602 201 581T181 521Q181 487 200 465T263 426ZM423 186Q423 267 325 298V71Q369 81 396 111T423 186Z" />
<glyph unicode="%" glyph-name="percent" horiz-adv-x="850" d="M810 160Q810 83 765 38T646 -8Q569 -8 526 37T482 162Q482 239 526 285T644 331Q722 331 766 286T810 160ZM631 687L290 1H222L562 687H631ZM368 525Q368 448 323 403T204 357Q127 357 84 402T40
527Q40 604 84 650T202 696Q280 696 324 651T368 525ZM733 156Q733 220 712 247T645 274Q559 274 559 166Q559 102 580 76T647 49Q733 49 733 156ZM291 521Q291 585 270 612T203 639Q117 639 117 531Q117 467 138 441T205 414Q291 414 291 521Z" />
<glyph unicode="&amp;" glyph-name="ampersand" horiz-adv-x="679" d="M669 2H544L484 61Q417 -14 290 -14Q176 -14 116 37T55 172Q55 235 89 273T193 347Q143 387 121 421T99 501Q99 569 150 615T281 661T415 620T469 507Q469 407 328 343L477 195Q496 239 496
330H572Q572 255 565 215T538 133L669 2ZM370 507Q370 546 345 571T282 596T220 574T195 511Q195 456 277 390Q370 435 370 507ZM432 113L243 299Q155 252 155 171Q155 118 191 87T293 55Q387 55 432 113Z" />
<glyph unicode="&apos;" glyph-name="quotesingle" horiz-adv-x="245" d="M165 453H80V709H165V453Z" />
<glyph unicode="(" glyph-name="parenleft" horiz-adv-x="295" d="M315 -111L291 -159Q225 -134 174 -81T95 45Q55 150 55 322Q55 502 102 591Q174 725 290 775L313 727Q256 689 225 649T175 551Q149 464 149 324Q149 159 178 66Q219 -64 315 -111Z" />
<glyph unicode=")" glyph-name="parenright" horiz-adv-x="296" d="M241 500T241 322T200 45Q170 -28 120 -81T4 -159L-20 -111Q76 -64 117 66Q147 158 147 324Q147 450 120 551Q104 609 72 648T-18 727L5 775Q121 725 193 591Q241 500 241 322Z" />
<glyph unicode="*" glyph-name="asterisk" horiz-adv-x="450" d="M420 540L282 493L369 372L313 328L224 453L139 330L83 373L170 493L30 541L52 609L192 559V708H260V560L399 607L420 540Z" />
<glyph unicode="+" glyph-name="plus" horiz-adv-x="565" d="M515 227H325V34H240V227H50V314H240V507H325V314H515V227Z" />
<glyph unicode="," glyph-name="comma" horiz-adv-x="287" d="M217 34Q217 -24 182 -72T92 -143L60 -98Q87 -87 106 -65T125 -23Q125 -14 116 -8T94 4Q61 23 61 62Q61 94 82 115T134 137Q170 137 193 108T217 34Z" />
<glyph unicode="-" glyph-name="hyphen" horiz-adv-x="303" d="M253 225H50V316H253V225Z" />
<glyph unicode="." glyph-name="period" horiz-adv-x="282" d="M212 92T212 61T192 8T141 -14T91 8T70 61T90 114T141 136T191 114Z" />
<glyph unicode="/" glyph-name="slash" horiz-adv-x="448" d="M388 761L128 -149H60L320 761H388Z" />
<glyph unicode="0" glyph-name="zero" horiz-adv-x="561" d="M506 249Q506 129 445 58T281 -14Q175 -14 115 57T55 251Q55 372 116 443T280 515Q386 515 446 444T506 249ZM407 240Q407 351 376 397T279 444Q154 444 154 261Q154 150 185 104T282 57Q407 57 407 240Z" />
<glyph unicode="1" glyph-name="one" horiz-adv-x="422" d="M377 0H101V74H199V406Q140 368 67 340L45 388L222 513H289V74H377V0Z" />
<glyph unicode="2" glyph-name="two" horiz-adv-x="543" d="M478 76L459 0H70V81L200 176Q282 236 316 273T350 358Q350 398 324 419T249 441Q216 441 179 426T120 394L100 378L55 429Q161 522 275 522Q356 522 406 482T457 372Q457 268 296 155L179 73Q179 76
282 76H478Z" />
<glyph unicode="3" glyph-name="three" horiz-adv-x="517" d="M462 51Q462 -20 416 -72Q316 -183 121 -183Q85 -183 61 -179L41 -117Q109 -130 191 -112Q263 -96 309 -51T356 59Q356 95 337 123T284 162Q240 177 174 173L151 172V243L175 242Q215 240 242 243Q343
256 343 341Q343 386 314 413T233 441Q193 441 160 428T79 386L35 438Q78 474 135 496T248 518Q334 518 389 472T445 354Q445 303 415 264T324 204Q386 188 424 146T462 51Z" />
<glyph unicode="4" glyph-name="four" horiz-adv-x="553" d="M498 8H450L418 10Q421 10 421 -25V-170L332 -189V-28L333 9Q333 8 292 8H35V77L250 521H348L177 167Q144 100 129 81Q134 81 147 82T168 84H292L335 83L333 112Q332 132 338 209L349 340L421 360V169Q421
136 420 114L419 83Q419 84 454 84H498V8Z" />
<glyph unicode="5" glyph-name="five" horiz-adv-x="490" d="M435 57Q435 -51 350 -119T140 -187Q103 -187 68 -178L50 -111Q86 -124 128 -124Q216 -124 275 -74T335 51Q335 109 298 142T196 176Q125 176 65 154L97 501H403L389 423H182L166 242Q199 247 230 247Q319
247 377 196T435 57Z" />
<glyph unicode="6" glyph-name="six" horiz-adv-x="562" d="M507 206Q507 112 443 49T285 -15Q182 -15 119 61T55 261Q55 362 101 448T224 596Q316 671 425 703L446 641Q397 626 344 593T256 522Q198 458 168 354Q226 406 306 406Q387 406 447 351T507 206ZM406
204Q406 265 374 299T289 334Q227 334 163 288Q160 264 160 230Q160 145 192 101T283 56Q339 56 372 96T406 204Z" />
<glyph unicode="7" glyph-name="seven" horiz-adv-x="481" d="M456 501L437 413Q401 361 356 287Q306 205 242 53Q184 -86 167 -162L59 -191Q76 -108 111 -17Q149 83 205 187Q284 335 363 426Q344 421 280 421H25L46 501H456Z" />
<glyph unicode="8" glyph-name="eight" horiz-adv-x="576" d="M521 181Q521 95 454 39T283 -17Q180 -17 118 35T55 169Q55 232 94 277T193 345Q77 394 77 499Q77 576 135 623T295 670Q385 670 441 626T498 512Q498 405 358 355Q377 349 409 332T463 297Q521 250
521 181ZM402 510Q402 553 371 578T285 604Q232 604 201 578T169 508Q169 471 198 443T295 387Q351 416 376 445T402 510ZM421 113T421 162T390 239Q360 266 249 312Q202 286 178 255T154 176Q154 119 191 85T292 51Q349 51 385 82Z" />
<glyph unicode="9" glyph-name="nine" horiz-adv-x="547" d="M492 266Q492 84 352 -62Q301 -115 231 -153T98 -205L50 -151Q96 -142 152 -113T251 -47Q328 20 365 120Q307 80 247 80Q160 80 103 140T45 293Q45 390 110 455T272 520Q370 520 431 452T492 266ZM391
279Q391 356 358 402T268 449Q213 449 180 407T147 296Q147 229 178 191T265 152Q324 152 381 202Q391 248 391 279Z" />
<glyph unicode=":" glyph-name="colon" horiz-adv-x="301" d="M221 375Q221 344 200 323T150 302T101 322T80 373T100 424T151 446Q180 446 200 425T221 375ZM221 59Q221 29 200 9T149 -12Q120 -12 100 8T80 59Q80 90 100 111T151 133Q180 133 200 112T221 59Z" />
<glyph unicode=";" glyph-name="semicolon" horiz-adv-x="317" d="M223 402T223 373T202 323T152 301T102 322T81 374Q81 403 101 424T151 445T201 424ZM237 34Q237 -24 202 -72T112 -143L80 -98Q107 -87 126 -65T145 -23Q145 -14 136 -8T114 4Q81 23 81 62Q81
94 102 115T154 137Q190 137 213 108T237 34Z" />
<glyph unicode="&lt;" glyph-name="less" horiz-adv-x="340" d="M300 84L224 29L20 300L224 570L300 515L138 300L300 84Z" />
<glyph unicode="=" glyph-name="equal" horiz-adv-x="625" d="M575 350H50V433H575V350ZM575 175H50V258H575V175Z" />
<glyph unicode="&gt;" glyph-name="greater" horiz-adv-x="340" d="M320 300L115 29L40 84L202 300L40 515L115 570L320 300Z" />
<glyph unicode="?" glyph-name="question" horiz-adv-x="437" d="M387 547Q387 514 375 485T347 440T314 410T288 391Q220 343 227 256Q228 250 229 240T231 225H152Q152 227 151 235T148 246Q130 353 212 428Q220 436 239 450T268 473T286 499T295 538Q295 576
269 598T204 620Q143 620 79 576L40 636Q116 700 223 700Q294 700 340 658T387 547ZM272 60Q272 30 251 9T201 -13Q173 -13 153 8T133 60Q133 88 152 108T201 128T251 108T272 60Z" />
<glyph unicode="@" glyph-name="at" horiz-adv-x="921" d="M866 276Q866 147 800 67T639 -14Q584 -14 556 10T524 73Q496 40 457 19T374 -2Q325 -2 289 35T253 143Q253 271 325 362T527 453Q595 453 662 417Q642 350 599 148Q588 90 597 72T642 53Q696 53 737
117T778 276Q778 395 692 476T469 558Q328 558 236 452T144 205Q144 74 233 -11T451 -96Q529 -96 595 -74L613 -142Q543 -165 451 -165Q371 -165 300 -141T174 -70T87 47T55 205Q55 383 172 504T469 625Q640 625 753 529T866 276ZM562 380Q547 387 520 387Q461
387 419 347T359 253T341 139Q341 101 354 86T395 71Q431 71 470 105T523 201L562 380Z" />
<glyph unicode="A" glyph-name="A" horiz-adv-x="568" d="M568 0H460L399 194H160L100 0H0L226 689H346L568 0ZM378 275Q369 299 331 431T285 594H279Q271 563 232 431T184 275H378Z" />
<glyph unicode="B" glyph-name="B" horiz-adv-x="598" d="M543 258T543 189T505 74T404 11Q361 0 295 0H85V689H231Q320 689 354 685T421 663Q514 614 514 519Q514 404 389 367Q466 350 504 304ZM410 505Q410 541 392 568T343 604Q321 611 273 611H181V397H288Q332
397 353 405T390 435Q410 463 410 505ZM437 201Q437 243 416 274T363 313Q336 319 291 319H181V78H316Q365 78 401 108T437 201Z" />
<glyph unicode="C" glyph-name="C" horiz-adv-x="570" d="M530 47Q450 -10 344 -10Q211 -10 130 93Q55 189 55 336Q55 454 100 541Q139 615 204 657T348 699Q451 699 517 645L470 581Q416 621 349 621Q246 621 196 522Q163 456 163 338Q163 239 188 180Q211 125
255 97T357 68Q428 68 483 111L530 47Z" />
<glyph unicode="D" glyph-name="D" horiz-adv-x="619" d="M564 344Q564 186 489 93Q451 46 398 23T257 0H85V689H245Q337 689 397 664T503 575Q564 490 564 344ZM456 330Q456 485 405 550Q377 585 345 598T260 611H181V78H258Q376 78 419 155Q456 223 456 330Z" />
<glyph unicode="E" glyph-name="E" horiz-adv-x="501" d="M471 0H85V689H460L447 609H181V399H404V321H181V80H471V0Z" />
<glyph unicode="F" glyph-name="F" horiz-adv-x="434" d="M444 689L431 609H181V401H386V323H181V0H85V689H444Z" />
<glyph unicode="G" glyph-name="G" horiz-adv-x="637" d="M557 45Q469 -10 353 -10Q214 -10 135 83Q55 176 55 342Q55 542 174 640Q246 699 347 699Q463 699 542 630L496 569Q424 621 349 621Q244 621 201 533Q178 486 171 444T163 338Q163 194 212 130Q234 101
274 85T359 68Q416 68 461 94V289H335L319 367H557V45Z" />
<glyph unicode="H" glyph-name="H" horiz-adv-x="625" d="M540 0H444V328H181V0H85V689H181V406H444V689H540V0Z" />
<glyph unicode="I" glyph-name="I" horiz-adv-x="268" d="M183 0H85V689H183V0Z" />
<glyph unicode="J" glyph-name="J" horiz-adv-x="273" d="M188 122Q188 48 181 11T154 -56Q115 -113 40 -141L-5 -88Q50 -59 73 -14Q90 20 90 115V689H188V122Z" />
<glyph unicode="K" glyph-name="K" horiz-adv-x="568" d="M558 0H433L187 368L428 689H549L297 369L558 0ZM181 0H85V689H181V0Z" />
<glyph unicode="L" glyph-name="L" horiz-adv-x="455" d="M445 80L429 0H85V689H181V80H445Z" />
<glyph unicode="M" glyph-name="M" horiz-adv-x="799" d="M739 0H643L607 469Q606 485 605 508T603 553T602 581H600Q588 523 575 478L438 0H355L229 456Q215 505 198 582H196Q192 498 189 456L154 0H60L122 689H257L373 266Q393 192 398 153H400Q411 214 424
261L544 689H680L739 0Z" />
<glyph unicode="N" glyph-name="N" horiz-adv-x="629" d="M544 0H441L260 366Q194 500 176 555L170 554Q176 482 178 362L182 0H85V689H197L389 309Q409 270 430 216T457 144L463 146Q453 246 453 351L451 689H544V0Z" />
<glyph unicode="O" glyph-name="O" horiz-adv-x="672" d="M617 339Q617 180 543 85T339 -10Q201 -10 128 88T55 346Q55 513 130 606T334 699Q408 699 463 670T552 590T601 476T617 339ZM509 332Q509 478 470 551T336 625Q245 625 204 559T163 359Q163 217 203
141T341 64Q509 64 509 332Z" />
<glyph unicode="P" glyph-name="P" horiz-adv-x="544" d="M524 489Q524 430 505 389T440 312Q386 270 295 270H181V0H85V689H269Q382 689 433 657Q524 600 524 489ZM416 479Q416 544 382 577Q347 611 270 611H181V348H288Q356 348 387 387Q416 424 416 479Z" />
<glyph unicode="Q" glyph-name="Q" horiz-adv-x="672" d="M691 -47L664 -115Q646 -125 606 -125Q559 -125 478 -74Q404 -26 333 -10Q211 -10 135 81Q55 176 55 346Q55 459 92 542T196 665Q254 699 333 699Q475 699 550 592Q617 496 617 339Q617 160 519 62Q495
38 471 23Q489 16 557 -22Q606 -51 648 -51Q673 -51 691 -47ZM509 332Q509 461 480 531Q464 570 429 597T336 625Q291 625 254 605T199 551Q163 483 163 358Q163 188 214 122Q259 64 342 64Q422 64 464 125Q509 189 509 332Z" />
<glyph unicode="R" glyph-name="R" horiz-adv-x="556" d="M536 0H419Q396 45 362 102Q291 221 243 274Q216 304 181 305V0H85V689H278Q388 689 441 639Q502 582 502 497Q502 414 452 360T318 308Q349 283 378 244Q406 206 436 159L536 0ZM401 497Q401 532 384
559T337 598Q304 611 253 611H181V370H248Q333 370 367 403Q401 435 401 497Z" />
<glyph unicode="S" glyph-name="S" horiz-adv-x="582" d="M532 204Q532 122 465 56T272 -10Q150 -10 50 51L88 125Q180 68 275 68Q343 68 383 100T424 188Q424 269 310 302L237 323Q156 346 115 388T74 499Q74 588 137 643T302 699Q421 699 513 634L470 567Q381
621 307 621Q249 621 216 593T182 517Q182 481 205 458T284 419L364 395Q439 373 485 325T532 204Z" />
<glyph unicode="T" glyph-name="T" horiz-adv-x="463" d="M483 689L473 609H295V0H199V609H20V689H483Z" />
<glyph unicode="U" glyph-name="U" horiz-adv-x="624" d="M544 217Q544 152 538 126T508 71Q442 -10 310 -10Q155 -10 102 86Q88 110 84 133T80 209V689H176V243Q176 138 201 109Q235 70 310 70Q389 70 423 115Q448 147 448 229V689H544V217Z" />
<glyph unicode="V" glyph-name="V" horiz-adv-x="568" d="M563 689L329 -2H235L5 689H111L243 274Q259 226 269 183Q279 141 280 131H286Q288 140 300 183Q310 218 328 275L463 689H563Z" />
<glyph unicode="W" glyph-name="W" horiz-adv-x="806" d="M796 689L636 -2H518L442 345Q417 464 407 544H401Q388 453 366 349L292 -2H173L10 689H114L190 334Q197 302 227 116H233Q255 250 271 325L351 689H462L541 323Q570 194 577 119H583Q602 241 623 340L696
689H796Z" />
<glyph unicode="X" glyph-name="X" horiz-adv-x="548" d="M543 0H426L271 296L122 0H5L213 371L29 689H146L270 455L388 689H503L329 377L543 0Z" />
<glyph unicode="Y" glyph-name="Y" horiz-adv-x="508" d="M523 689L303 274V0H203V276L-15 689H103L217 454Q241 404 255 365Q275 412 295 453L411 689H523Z" />
<glyph unicode="Z" glyph-name="Z" horiz-adv-x="515" d="M475 80L451 0H40V74L318 541Q336 572 367 612Q337 609 288 609H52L75 689H471V612L196 145Q188 131 173 109T153 79Q174 80 222 80H475Z" />
<glyph unicode="[" glyph-name="bracketleft" horiz-adv-x="280" d="M260 -155H85V733H260V668H168V-91H260V-155Z" />
<glyph unicode="\" glyph-name="backslash" horiz-adv-x="394" d="M384 -19L308 -46L10 728L86 755L384 -19Z" />
<glyph unicode="]" glyph-name="bracketright" horiz-adv-x="280" d="M195 -155H20V-91H112V668H20V733H195V-155Z" />
<glyph unicode="^" glyph-name="asciicircum" horiz-adv-x="614" d="M554 300H464L307 620L151 300H60L263 708H351L554 300Z" />
<glyph unicode="_" glyph-name="underscore" horiz-adv-x="500" d="M500 -125H0V-75H500V-125Z" />
<glyph unicode="`" glyph-name="grave" horiz-adv-x="335" d="M290 617L262 563L45 665L89 750L290 617Z" />
<glyph unicode="a" glyph-name="a" horiz-adv-x="514" d="M468 41L421 -21Q372 -2 354 52Q300 -14 212 -14Q136 -14 93 24T50 133Q50 219 116 264T305 310Q327 310 340 309V342Q340 393 325 417T262 441Q183 441 108 384L66 449Q102 470 122 480T187 502T276 515Q392
515 421 435Q431 408 431 347Q431 334 429 269T427 162Q427 105 434 82T468 41ZM338 246Q310 248 309 248Q209 248 178 212Q152 182 152 141T172 77T231 54Q262 54 290 72T335 120L338 246Z" />
<glyph unicode="b" glyph-name="b" horiz-adv-x="556" d="M501 260Q501 101 411 28Q364 -10 303 -10Q223 -10 174 56Q166 14 159 0H72Q85 35 85 117V595Q85 670 69 715L167 735Q177 682 177 627V513Q177 470 174 461L177 459Q233 515 308 515Q397 515 449 447T501
260ZM397 263Q397 313 393 336T376 383Q348 435 287 435Q245 435 208 408Q192 396 177 377V123Q222 70 285 70Q343 70 369 115Q397 164 397 263Z" />
<glyph unicode="c" glyph-name="c" horiz-adv-x="453" d="M418 55Q382 20 347 5T264 -10Q156 -10 103 65Q55 133 55 243Q55 389 139 464Q196 515 269 515Q347 515 405 462L357 399Q313 438 271 438Q210 438 183 384Q159 336 159 231Q159 133 199 90Q227 60 271
60Q327 60 373 112L418 55Z" />
<glyph unicode="d" glyph-name="d" horiz-adv-x="555" d="M484 0H396Q391 15 387 45Q335 -10 258 -10Q162 -10 109 57T55 244Q55 413 160 481Q205 510 258 510Q332 510 380 452Q380 456 379 488T378 540V735L470 720V168Q470 39 484 0ZM378 128V383Q339 430 272
430Q215 430 185 379Q159 334 159 242Q159 177 167 148T198 96Q223 70 272 70Q345 70 378 128Z" />
<glyph unicode="e" glyph-name="e" horiz-adv-x="508" d="M463 229H158V217Q158 153 179 119Q217 60 294 60Q363 60 417 108L452 54Q379 -10 278 -10Q174 -10 114 60T54 253T114 446Q173 515 265 515Q350 515 402 461Q435 427 448 379T463 245V229ZM367 297Q367
371 336 410Q308 445 264 445Q212 445 186 406T159 297H367Z" />
<glyph unicode="f" glyph-name="f" horiz-adv-x="300" d="M340 703L309 643Q271 662 243 662Q211 662 194 641T176 582V501H310L286 436H177V0H85V436H37V501H86Q84 511 84 581Q84 667 140 706Q174 730 231 730Q296 730 340 703Z" />
<glyph unicode="g" glyph-name="g" horiz-adv-x="531" d="M536 460Q498 430 453 430Q437 430 410 438Q446 392 446 346Q446 284 402 238T266 191Q237 182 212 167T187 136Q187 111 223 111H300Q392 111 436 73T481 -27Q481 -105 423 -147T270 -189Q165 -189 108
-154T50 -57Q50 -33 59 -6L149 -1Q140 -19 140 -39Q140 -119 261 -119Q321 -119 352 -97T384 -33Q384 43 246 43Q200 43 152 48Q119 52 101 69T82 115Q82 147 106 166T180 203Q121 220 90 257T59 347Q59 423 112 469T251 515Q295 515 332 504Q384 488 407 488Q448
488 489 517L536 460ZM344 349Q344 443 252 443Q161 443 161 347Q161 254 253 254Q344 254 344 349Z" />
<glyph unicode="h" glyph-name="h" horiz-adv-x="558" d="M473 0H381V345Q381 396 364 415T309 434Q278 434 243 415T178 361V0H86V609Q86 668 75 714L167 733Q178 686 178 617V506Q178 478 175 439Q200 462 228 480Q280 514 337 514Q382 514 417 494T463 439Q473
410 473 358V0Z" />
<glyph unicode="i" glyph-name="i" horiz-adv-x="265" d="M199 655Q199 628 180 609T132 589Q105 589 87 608T68 655Q68 683 87 702T133 722T179 703T199 655ZM180 0H86V498L180 513V0Z" />
<glyph unicode="j" glyph-name="j" horiz-adv-x="265" d="M196 663Q196 635 177 615T130 595Q102 595 84 614T65 661T84 708T130 728T176 709T196 663ZM180 11Q180 -88 143 -137Q108 -182 55 -206L14 -150Q28 -142 47 -126Q86 -90 86 12V493L180 513V11Z" />
<glyph unicode="k" glyph-name="k" horiz-adv-x="508" d="M508 0H393L187 285L352 501H464L285 289L508 0ZM177 0H85V599Q85 666 72 713L165 735Q177 681 177 625V0Z" />
<glyph unicode="l" glyph-name="l" horiz-adv-x="264" d="M239 1Q213 -10 182 -10Q131 -10 104 28Q85 55 85 115V571Q85 661 74 715L170 735Q179 702 179 592V139Q179 77 192 65Q203 52 223 58L239 1Z" />
<glyph unicode="m" glyph-name="m" horiz-adv-x="796" d="M711 0H619V358Q619 400 606 417T561 435T504 418T444 367V0H352V358Q352 400 339 417T292 435Q238 435 177 377V0H85V368Q85 448 67 493L153 514Q170 485 170 444Q238 515 311 515Q392 515 429 436Q504
515 583 515Q643 515 677 479T711 374V0Z" />
<glyph unicode="n" glyph-name="n" horiz-adv-x="543" d="M458 0H366V338Q366 394 350 415Q335 435 300 435Q274 435 239 416T177 370V0H85V373Q85 443 66 492L153 516Q170 482 170 441Q216 479 235 490Q278 515 328 515Q368 515 400 496T446 444Q458 417 458 381V0Z" />
<glyph unicode="o" glyph-name="o" horiz-adv-x="535" d="M485 365T485 246T426 57T267 -14T109 57T50 251T108 444T265 515Q372 515 428 440ZM381 242Q381 353 352 399T266 445Q207 445 181 401T154 261Q154 149 182 103T270 56Q381 56 381 242Z" />
<glyph unicode="p" glyph-name="p" horiz-adv-x="554" d="M499 260Q499 139 448 65T303 -10Q231 -10 173 42Q175 26 175 -14V-190L85 -211V378Q85 451 74 501L163 516Q169 494 169 445Q227 515 311 515Q392 515 445 449T499 260ZM395 253Q395 342 371 388T292
435Q230 435 177 373V125Q229 70 279 70Q395 70 395 253Z" />
<glyph unicode="q" glyph-name="q" horiz-adv-x="554" d="M481 505Q469 460 469 365V-187L381 -209V-27Q381 -24 381 9T382 51Q325 -10 252 -10Q170 -10 113 54T55 236Q55 368 106 441T253 515Q336 515 389 446Q390 486 398 505H481ZM380 137V374Q361 402 331
418T269 435Q211 435 183 388T154 256Q154 156 184 113T273 70Q341 70 380 137Z" />
<glyph unicode="r" glyph-name="r" horiz-adv-x="339" d="M339 512L307 420Q292 425 281 425Q239 425 208 395T177 323V0H85V368Q85 444 66 493L155 516Q172 480 172 439V430Q232 517 308 517Q326 517 339 512Z" />
<glyph unicode="s" glyph-name="s" horiz-adv-x="474" d="M429 154Q429 79 375 33T232 -14Q135 -14 45 39L78 106Q167 56 239 56Q280 56 306 78T332 137Q332 199 248 215L187 227Q65 252 65 366Q65 435 115 478T246 522Q334 522 404 481L373 416Q301 452 250 452Q210
452 187 432T163 377Q163 349 179 334T234 309L299 294Q429 264 429 154Z" />
<glyph unicode="t" glyph-name="t" horiz-adv-x="319" d="M299 501L274 436H177V134Q177 87 191 70T242 53Q264 53 287 63L298 7Q256 -14 207 -14Q149 -14 122 11Q107 24 102 30T91 57T85 113V436H25V501H85Q85 583 91 629L186 651Q177 570 177 501H299Z" />
<glyph unicode="u" glyph-name="u" horiz-adv-x="542" d="M488 33L425 -17Q390 10 378 58Q319 -14 227 -14Q179 -14 144 6T92 61Q80 88 80 145V495L171 513V166Q171 128 176 110T194 78Q218 56 252 56Q285 56 317 79T366 135V495L457 513V137Q457 59 488 33Z" />
<glyph unicode="v" glyph-name="v" horiz-adv-x="458" d="M453 501L270 -4H184L5 499L100 514L199 211Q216 159 229 103H231Q242 156 261 213L356 501H453Z" />
<glyph unicode="w" glyph-name="w" horiz-adv-x="693" d="M678 501L538 -4H449L372 283Q348 372 345 387H342Q331 331 317 282L240 -4H152L15 497L108 512L172 231Q187 166 198 108H200Q204 145 224 222L300 501H395L465 230Q477 188 493 108H495Q503 148 520
227L582 501H678Z" />
<glyph unicode="x" glyph-name="x" horiz-adv-x="472" d="M472 0H357L236 203Q173 92 114 0H0L186 276L38 494L142 507Q154 487 192 420T239 339Q282 426 325 501H432L286 276L472 0Z" />
<glyph unicode="y" glyph-name="y" horiz-adv-x="469" d="M459 501L284 -16Q245 -132 199 -170Q161 -202 106 -213L77 -153Q128 -140 164 -96Q183 -72 205 2L169 -3Q153 70 121 164L10 493L103 514L199 199Q215 143 228 81H234Q248 141 268 205L357 501H459Z" />
<glyph unicode="z" glyph-name="z" horiz-adv-x="454" d="M414 66L382 0H40V66L303 434H60V501H403V432L152 66H414Z" />
<glyph unicode="{" glyph-name="braceleft" horiz-adv-x="324" d="M304 -155H224Q179 -155 147 -121T114 -24V151Q114 198 84 224T20 252V326Q53 328 83 354T114 427V604Q114 665 146 699T224 733H304V659H255Q220 659 209 639T197 583V410Q197 352 169 325T107
292L106 285Q140 282 168 256T197 168V-4Q197 -82 255 -82H304V-155Z" />
<glyph unicode="|" glyph-name="bar" horiz-adv-x="251" d="M166 -207H85V757H166V-207Z" />
<glyph unicode="}" glyph-name="braceright" horiz-adv-x="324" d="M304 252Q270 250 240 224T210 151V-25Q210 -87 178 -121T99 -155H20V-82H68Q127 -82 127 -4V167Q127 230 155 256T218 285V292Q183 298 155 325T127 410V583Q127 659 68 659H20V733H100Q144
733 177 699T210 603V427Q210 381 240 355T304 326V252Z" />
<glyph unicode="~" glyph-name="asciitilde" horiz-adv-x="572" d="M512 314Q487 273 460 249T391 225Q358 225 286 258Q262 271 231 284T175 297Q128 297 90 229L60 295Q85 336 112 359T181 383Q213 383 285 351Q309 338 341 325T396 311Q424 311 443 329T482
380L512 314Z" />
</font>
</defs>
</svg>
